<svg version="1.2" baseProfile="tiny-ps" xmlns="http://www.w3.org/2000/svg" width="400" height="364"><style></style><path fill-rule="evenodd" d="M351.45 27.09c8.8 4.45 21.49 10.86 28.19 14.23 13.8 6.95 15.19 7.95 16.7 11.96 3.04 8.05-5.27 17.21-13.98 15.41-1.58-.33-8.01-3.39-23.37-11.13-19.8-9.97-23.07-11.43-21.24-9.43.77.84 8.43 12.48 8.43 12.81 0 .11.49.91 1.09 1.79.6.87 1.09 1.65 1.09 1.74 0 .09 1.2 2.27 2.65 4.84 2.48 4.38 5.8 10.91 7.47 14.69 2.26 5.11 3.71 8.53 4.77 11.27.65 1.7 1.33 3.42 1.5 3.82 1.01 2.31 4.86 14.62 5.98 19.09.32 1.3.73 2.94.91 3.64.17.7.49 2.05.7 3 .21.95.54 2.42.73 3.27.19.85.44 2.12.54 2.82.11.7.35 2.17.54 3.27 1.6 9.36 2.21 17.03 2.21 27.82 0 11.63-.97 21.86-2.86 30.18-.19.8-.51 2.28-.72 3.28-1.09 5.15-4.25 15.17-6.42 20.36-.25.6-1 2.4-1.67 4-1.2 2.87-6.38 13.31-7.85 15.85-4.95 8.49-14.32 21.95-17.2 24.69-.1.1-1.32 1.5-2.7 3.09-9.5 10.98-25.02 23.93-36.43 30.4-.78.44-2.24 1.28-3.24 1.86-1 .59-4.02 2.12-6.72 3.42-2.7 1.29-5.2 2.51-5.55 2.7-.34.19-.79.35-1 .35-.2 0-1.06.32-1.91.7-4.84 2.18-14.08 4.93-21.36 6.35-5.2 1.01-14.56 2.04-18.58 2.04h-3.07l-1.97 3.18c-2.02 3.27-3.05 4.74-6.73 9.65-9.87 13.13-24.41 24.56-38.38 30.18-.5.2-1.24.49-1.64.65-1.63.66-5.72 1.91-9.45 2.89-9.1 2.41-23.29 2.93-34.55 1.29-5.7-.84-8.11-1.36-16.72-3.65-2.51-.66-9.57-3.02-10.97-3.66-.63-.29-1.25-.53-1.39-.53-1.21 0-17.25-7.61-22.88-10.86-1.78-1.03-3.3-1.86-3.39-1.86-.08 0-.87-.49-1.74-1.1-.87-.59-1.68-1.09-1.81-1.09-.3 0-12.61-8.07-14.91-9.78-10.35-7.67-18.07-13.93-24.87-20.16-7.75-7.1-6.61-10.41 3.59-10.42 7.65 0 12.47 1.76 17.5 6.43 3.58 3.31 6.29 5.75 7.79 7.03 10.71 9.1 15 12.41 22.91 17.69 13.08 8.73 27.02 14.72 38.35 16.47 1.5.23 3.61.58 4.69.76 1.09.19 4.02.35 6.52.35 11.47 0 22.58-3.25 33.7-9.84 8.78-5.21 20.26-16.28 26.69-25.75l1.46-2.14-1.53-.57c-.84-.31-2.27-.81-3.17-1.11-1.47-.5-3.9-1.4-6.62-2.45-6.59-2.56-17.45-8.92-24.65-14.45-12.38-9.49-23.48-24.21-26.21-34.78-.92-3.56-1.4-5.73-1.76-7.86-.5-3.06-.51-11.31-.01-13.84.88-4.49 1.17-5.69 1.86-7.76 6.09-18.27 23.94-29.59 45.39-28.79 6.97.26 11.41 1.16 18.18 3.7 3.86 1.45 12.26 5.53 13.1 6.37.1.1.61.4 1.15.68 9.29 4.78 20.22 18.67 24.22 30.77 5.07 15.32 4.54 32.59-1.58 51.91-1.22 3.86-1.38 3.68 2.79 3.01 23.02-3.7 54.37-25.03 69.78-47.47.48-.7.98-1.35 1.12-1.45.31-.24 4.76-7.06 5.71-8.77 1.53-2.73 1.72-3.05 1.94-3.23.3-.24 5.77-11.36 6.62-13.45.37-.9.8-1.97.97-2.37.33-.81 1.36-3.59 2.54-6.88 2.03-5.65 4.74-16.35 5.81-22.94 1.54-9.49 1.81-12.37 2.04-22.18.25-10.37-.42-24.43-1.42-29.82-.11-.6-.39-2.4-.62-4-1.3-9.08-6.02-27.78-8.35-33.09-.18-.4-.72-1.87-1.21-3.27-1.1-3.14-2.78-7.35-3.98-10-.5-1.1-1.27-2.82-1.72-3.82-3.52-7.9-13.1-25.01-13.68-24.44-.07.07.11 3.55.4 7.74.3 4.19.71 10.23.92 13.43.21 3.2.55 8.02.76 10.73.43 5.54.94 13.14 1.28 19.15.3 5.07-.14 6.81-2.36 9.29-6.65 7.41-20.94 4.61-23.59-4.63-.41-1.42-.53-2.76-1.17-12.91-.28-4.27-.82-12-2.18-30.72-.19-2.6-.76-10.62-1.27-17.82-.5-7.2-1.18-16.69-1.5-21.09-.95-13.02-.9-16.02.28-18 1.9-3.18 4.34-5.04 7.85-6.01 5.87-1.62 1.66-3.41 54.44 23.28zM192.91 213.44c-8.13 1.35-15.9 9.43-18.39 19.1-.38 1.49-1.36 5.48-1.8 7.37-.48 2.09-.46 13.83.04 15.99 3.24 14.17 11.94 23.62 28.33 30.76 4.61 2 16.41 5.24 17.95 4.93.56-.12 1.41-1.75 3.85-7.41 5.35-12.39 8.03-28.46 6.4-38.4-2.37-14.45-13.15-27.61-25.83-31.53-2.87-.88-7.83-1.27-10.55-.81z" style="fill:#fcfafb"/></svg>