<svg xmlns="http://www.w3.org/2000/svg" fill="none" viewBox="0 0 99 30">
  <path fill="#00843F" d="M80.557 29.328c-5.36 0-9.722-4.577-9.722-10.194 0-5.617 4.361-10.194 9.722-10.194 5.36 0 9.721 4.577 9.721 10.194 0 5.617-4.374 10.194-9.721 10.194Zm.594-15.73c-2.836 0-5.131 2.484-5.131 5.522 0 3.052 2.309 5.523 5.13 5.523 2.823 0 5.132-2.484 5.132-5.523 0-3.038-2.31-5.522-5.131-5.522Z"/>
  <path fill="#000" d="M35.836 9.21h-5.185v19.794h5.185V9.21Z"/>
  <path fill="#FF4B4B" d="M11.234 29.004V9.21A3.028 3.028 0 0 0 8.21 6.185 3.02 3.02 0 0 0 5.185 9.21H0c0-4.524 3.686-8.197 8.21-8.197 4.523 0 8.21 3.687 8.21 8.21v14.61h3.01V9.21c0-4.524 3.686-8.21 8.21-8.21 4.523 0 8.21 3.686 8.21 8.21h-5.186a3.028 3.028 0 0 0-3.024-3.025 3.028 3.028 0 0 0-3.025 3.025v19.794h-13.38Z"/>
  <path fill="#000" d="M5.185 9.21H0v19.794h5.185V9.21Zm50.702 0h-5.185v11.166h5.185V9.21Z"/>
  <path fill="#5887FF" d="M46.908 29.328c-4.942 0-8.966-4.023-8.966-8.965h5.185c0 2.08 1.702 3.78 3.781 3.78 2.08 0 3.78-1.7 3.78-3.78h5.186c0 4.942-4.024 8.965-8.966 8.965Z"/>
  <path fill="#000" d="M43.141 9.21h-5.185v11.166h5.185V9.21Z"/>
  <path fill="#FC83FF" d="M98.772 1.324h-5.185V9.21h5.185V1.324Z"/>
  <path fill="#000" d="M91.467 9.21h-5.185v19.794h5.185V9.21Zm7.305 0h-5.185v19.794h5.185V9.21Zm-35.58 5.171h-5.185v14.61h5.185V14.38Z"/>
  <path fill="#FA0" d="M70.767 9.21h-12.76v5.185h12.76V9.21Z"/>
</svg>
