<svg xmlns="http://www.w3.org/2000/svg" fill="currentColor" viewBox="0 0 99 30">
  <path d="M27.636 1c-4.523 0-8.209 3.686-8.209 8.208v14.608h-3.01V9.208C16.417 4.686 12.73 1 8.208 1S0 4.686 0 9.208V29h5.184V9.208a3.028 3.028 0 0 1 3.024-3.024 3.028 3.028 0 0 1 3.024 3.024V29l13.366-.013V9.208a3.028 3.028 0 0 1 3.024-3.024 3.028 3.028 0 0 1 3.024 3.024V29h5.184V9.208C35.83 4.686 32.159 1 27.636 1Zm23.072 19.36a3.791 3.791 0 0 1-3.78 3.78 3.791 3.791 0 0 1-3.78-3.78V9.195h-5.184V20.36c0 4.941 4.023 8.964 8.964 8.964 4.941 0 8.964-4.023 8.964-8.964V9.195h-5.184V20.36ZM98.77 1.324h-5.184V29h5.184V1.324ZM58.012 29h5.17V14.42h7.588V9.207H58.012V29Zm28.27-18.104c-1.607-1.229-3.591-1.971-5.724-1.971-5.36 0-9.72 4.576-9.72 10.193 0 5.616 4.36 10.193 9.72 10.193a9.33 9.33 0 0 0 5.724-1.971v1.647h5.184V9.208h-5.184v1.688Zm0 8.478c-.121 2.93-2.376 5.279-5.13 5.279-2.835 0-5.13-2.484-5.13-5.522 0-3.037 2.308-5.521 5.13-5.521 2.754 0 5.008 2.349 5.13 5.278v.486Z"/>
</svg>
